<svg width="18" height="21" viewBox="0 0 18 21" fill="none" xmlns="http://www.w3.org/2000/svg">
<g clip-path="url(#clip0_511_15636)">
<path d="M0.367188 11.3818C-0.121094 10.8936 -0.121094 10.1006 0.367188 9.6123L6.61719 3.3623C7.10547 2.87402 7.89844 2.87402 8.38672 3.3623C8.875 3.85059 8.875 4.64355 8.38672 5.13184L4.26562 9.24902H16.25C16.9414 9.24902 17.5 9.80762 17.5 10.499C17.5 11.1904 16.9414 11.749 16.25 11.749H4.26953L8.38281 15.8662C8.87109 16.3545 8.87109 17.1475 8.38281 17.6357C7.89453 18.124 7.10156 18.124 6.61328 17.6357L0.363281 11.3857L0.367188 11.3818Z" fill="#D6B1E2"/>
</g>
<defs>
<clipPath id="clip0_511_15636">
<rect width="17.5" height="20" fill="white" transform="matrix(-1 0 0 1 17.5 0.5)"/>
</clipPath>
</defs>
</svg>
