<svg width="21" height="16" viewBox="0 0 21 16" fill="none" xmlns="http://www.w3.org/2000/svg">
<path d="M3 2.375C2.65625 2.375 2.375 2.65625 2.375 3V3.86328L9.11328 9.39453C9.92188 10.0586 11.082 10.0586 11.8906 9.39453L18.625 3.86328V3C18.625 2.65625 18.3438 2.375 18 2.375H3ZM2.375 6.28906V13C2.375 13.3438 2.65625 13.625 3 13.625H18C18.3438 13.625 18.625 13.3438 18.625 13V6.28906L13.0781 10.8438C11.5781 12.0742 9.41797 12.0742 7.92188 10.8438L2.375 6.28906ZM0.5 3C0.5 1.62109 1.62109 0.5 3 0.5H18C19.3789 0.5 20.5 1.62109 20.5 3V13C20.5 14.3789 19.3789 15.5 18 15.5H3C1.62109 15.5 0.5 14.3789 0.5 13V3Z" fill="#B946DE"/>
</svg>
