<svg width="20" height="21" viewBox="0 0 20 21" fill="none" xmlns="http://www.w3.org/2000/svg">
<g clip-path="url(#clip0_920_10815)">
<path d="M10 13.8333C8.16169 13.8333 6.66669 12.3383 6.66669 10.5C6.66669 8.66167 8.16169 7.16667 10 7.16667C11.8384 7.16667 13.3334 8.66167 13.3334 10.5C13.3334 12.3383 11.8384 13.8333 10 13.8333ZM10 8.83333C9.08085 8.83333 8.33335 9.58083 8.33335 10.5C8.33335 11.4192 9.08085 12.1667 10 12.1667C10.9192 12.1667 11.6667 11.4192 11.6667 10.5C11.6667 9.58083 10.9192 8.83333 10 8.83333ZM4.16669 6.33333C3.70669 6.33333 3.33335 6.70667 3.33335 7.16667C3.33335 7.62667 3.70669 8 4.16669 8C4.62669 8 5.00002 7.62667 5.00002 7.16667C5.00002 6.70667 4.62669 6.33333 4.16669 6.33333ZM15 8.83333C15 9.29333 15.3734 9.66667 15.8334 9.66667C16.2934 9.66667 16.6667 9.29333 16.6667 8.83333C16.6667 8.37333 16.2934 8 15.8334 8C15.3734 8 15 8.37333 15 8.83333ZM4.16669 11.3333C3.70669 11.3333 3.33335 11.7067 3.33335 12.1667C3.33335 12.6267 3.70669 13 4.16669 13C4.62669 13 5.00002 12.6267 5.00002 12.1667C5.00002 11.7067 4.62669 11.3333 4.16669 11.3333ZM15 13.8333C15 14.2933 15.3734 14.6667 15.8334 14.6667C16.2934 14.6667 16.6667 14.2933 16.6667 13.8333C16.6667 13.3733 16.2934 13 15.8334 13C15.3734 13 15 13.3733 15 13.8333ZM14.1659 18C12.8042 18 11.5842 17.6675 10.405 17.3458C9.28169 17.0392 8.22169 16.75 7.08335 16.75C5.77419 16.75 4.94835 16.8342 4.23419 17.0408C3.22919 17.33 2.17252 17.135 1.33419 16.5042C0.486688 15.8667 0.000854492 14.8933 0.000854492 13.8333V7.54333C0.000854492 5.82417 1.08335 4.25667 2.69502 3.6425C3.81252 3.21583 4.86919 3 5.83502 3C7.19669 3 8.41585 3.3325 9.59585 3.65417C10.7192 3.96083 11.7792 4.25 12.9175 4.25C14.2259 4.25 15.0525 4.16583 15.7667 3.95917C16.7734 3.67 17.83 3.865 18.6675 4.49583C19.515 5.13333 20.0009 6.10667 20.0009 7.16667V13.4567C20.0009 15.1758 18.9175 16.7433 17.3059 17.3575C16.1884 17.7842 15.1325 18 14.1659 18ZM7.08335 15.0833C8.44502 15.0833 9.66419 15.4158 10.8442 15.7375C11.9675 16.0442 13.0275 16.3333 14.1659 16.3333C14.9275 16.3333 15.7842 16.1542 16.7125 15.8C17.6984 15.425 18.3342 14.505 18.3342 13.4567V7.16667C18.3342 6.63583 18.09 6.1475 17.665 5.82833C17.2492 5.51583 16.7267 5.4175 16.2275 5.56083C15.3517 5.81333 14.3925 5.91667 12.9159 5.91667C11.5542 5.91667 10.335 5.58417 9.15502 5.2625C8.03169 4.95583 6.97169 4.66667 5.83335 4.66667C5.07085 4.66667 4.21502 4.84583 3.28669 5.2C2.30085 5.575 1.66502 6.495 1.66502 7.54333V13.8333C1.66502 14.3642 1.90919 14.8525 2.33419 15.1717C2.75002 15.4842 3.27252 15.5825 3.77085 15.4383C4.64669 15.1858 5.60669 15.0825 7.08252 15.0825L7.08335 15.0833Z" fill="#B946DE"/>
</g>
<defs>
<clipPath id="clip0_920_10815">
<rect width="20" height="20" fill="white" transform="translate(0 0.5)"/>
</clipPath>
</defs>
</svg>
