<svg width="20" height="21" viewBox="0 0 20 21" fill="none" xmlns="http://www.w3.org/2000/svg">
<g clip-path="url(#clip0_920_10809)">
<path d="M20 6.33268V7.16602C20 7.62602 19.6275 7.99935 19.1667 7.99935C18.7058 7.99935 18.3333 7.62602 18.3333 7.16602V6.33268C18.3333 4.95435 17.2117 3.83268 15.8333 3.83268H4.16667C2.78833 3.83268 1.66667 4.95435 1.66667 6.33268V14.666C1.66667 16.0443 2.78833 17.166 4.16667 17.166H6.66667C7.1275 17.166 7.5 17.5393 7.5 17.9993C7.5 18.4594 7.1275 18.8327 6.66667 18.8327H4.16667C1.86917 18.8327 0 16.9635 0 14.666V6.33268C0 4.03518 1.86917 2.16602 4.16667 2.16602H15.8333C18.1308 2.16602 20 4.03518 20 6.33268ZM12.5 7.99935H15.8333C16.2942 7.99935 16.6667 7.62602 16.6667 7.16602C16.6667 6.70602 16.2942 6.33268 15.8333 6.33268H12.5C12.0392 6.33268 11.6667 6.70602 11.6667 7.16602C11.6667 7.62602 12.0392 7.99935 12.5 7.99935ZM19.2675 10.3985C19.7392 10.8702 20 11.4985 20 12.166C20 12.8335 19.7392 13.4618 19.2675 13.9343L13.6783 19.5235C13.0492 20.1527 12.2117 20.5002 11.3217 20.5002H10C9.53917 20.5002 9.16667 20.1269 9.16667 19.6668V18.3452C9.16667 17.4552 9.51333 16.6177 10.1433 15.9885L15.7325 10.3993C16.7075 9.42435 18.2925 9.42435 19.2675 10.3993V10.3985ZM18.3333 12.166C18.3333 11.9435 18.2467 11.7343 18.0892 11.5768C17.7633 11.251 17.2367 11.2518 16.9108 11.5768L11.3217 17.166C11.0117 17.4768 10.8333 17.906 10.8333 18.3443V18.8327H11.3217C11.7667 18.8327 12.185 18.6593 12.5 18.3443L18.0892 12.7552C18.2467 12.5977 18.3333 12.3885 18.3333 12.166ZM7.5 12.9993H5.61C5.31333 12.9993 5.03667 12.8393 4.8875 12.5827C4.65833 12.1835 4.14917 12.046 3.74917 12.2785C3.35083 12.5093 3.21417 13.0185 3.44583 13.4169C3.89083 14.1877 4.72083 14.666 5.61083 14.666H5.83417C5.83417 15.126 6.20667 15.4993 6.6675 15.4993C7.12833 15.4993 7.50083 15.126 7.50083 14.666C8.87917 14.666 10.0008 13.5443 10.0008 12.166C10.0008 11.0327 9.18917 10.0743 8.07167 9.88852L5.5375 9.46602C5.22667 9.41435 5.00083 9.14768 5.00083 8.83268C5.00083 8.37352 5.37417 7.99935 5.83417 7.99935H7.72417C8.02083 7.99935 8.2975 8.15935 8.44667 8.41602C8.67583 8.81435 9.18417 8.95102 9.585 8.72018C9.98333 8.48935 10.12 7.98018 9.88833 7.58185C9.44333 6.81102 8.61333 6.33185 7.72333 6.33185H7.5C7.5 5.87185 7.1275 5.49852 6.66667 5.49852C6.20583 5.49852 5.83333 5.87185 5.83333 6.33185C4.455 6.33185 3.33333 7.45352 3.33333 8.83185C3.33333 9.96518 4.145 10.9235 5.2625 11.1093L7.79667 11.5318C8.1075 11.5835 8.33333 11.8502 8.33333 12.1652C8.33333 12.6243 7.96 12.9985 7.5 12.9985V12.9993ZM11.6667 10.4993C11.6667 10.9593 12.04 11.3327 12.5 11.3327C12.96 11.3327 13.3333 10.9593 13.3333 10.4993C13.3333 10.0393 12.96 9.66602 12.5 9.66602C12.04 9.66602 11.6667 10.0393 11.6667 10.4993Z" fill="#B946DE"/>
</g>
<defs>
<clipPath id="clip0_920_10809">
<rect width="20" height="20" fill="white" transform="translate(0 0.5)"/>
</clipPath>
</defs>
</svg>
