<svg width="20" height="20" viewBox="0 0 20 20" fill="none" xmlns="http://www.w3.org/2000/svg">
<g clip-path="url(#clip0_4562_1621)">
<path d="M9.99995 17.0595C10.8845 17.8513 12.0527 18.3327 13.3333 18.3327C16.0947 18.3327 18.3333 16.0941 18.3333 13.3327C18.3333 11.0269 16.7725 9.08567 14.6498 8.50783M5.35011 8.50782C3.22741 9.08566 1.66663 11.0269 1.66663 13.3327C1.66663 16.0941 3.9052 18.3327 6.66663 18.3327C9.42805 18.3327 11.6666 16.0941 11.6666 13.3327C11.6666 12.6823 11.5424 12.0609 11.3165 11.4909M15 6.66602C15 9.42744 12.7614 11.666 9.99996 11.666C7.23854 11.666 4.99996 9.42744 4.99996 6.66602C4.99996 3.90459 7.23854 1.66602 9.99996 1.66602C12.7614 1.66602 15 3.90459 15 6.66602Z" stroke="#D6B1E2" stroke-width="1.5" stroke-linecap="round" stroke-linejoin="round"/>
</g>
<defs>
<clipPath id="clip0_4562_1621">
<rect width="20" height="20" fill="white"/>
</clipPath>
</defs>
</svg>
