<svg width="16" height="18" viewBox="0 0 16 18" fill="none" xmlns="http://www.w3.org/2000/svg">
<g clip-path="url(#clip0_804_5680)">
<path d="M7.86885 7.3125C8.61419 7.3125 9.329 7.01618 9.85604 6.48874C10.3831 5.96129 10.6792 5.24592 10.6792 4.5C10.6792 3.75408 10.3831 3.03871 9.85604 2.51126C9.329 1.98382 8.61419 1.6875 7.86885 1.6875C7.12351 1.6875 6.4087 1.98382 5.88167 2.51126C5.35463 3.03871 5.05855 3.75408 5.05855 4.5C5.05855 5.24592 5.35463 5.96129 5.88167 6.48874C6.4087 7.01618 7.12351 7.3125 7.86885 7.3125ZM12.3653 4.5C12.3653 5.69347 11.8916 6.83807 11.0483 7.68198C10.2051 8.52589 9.06139 9 7.86885 9C6.67631 9 5.53261 8.52589 4.68936 7.68198C3.8461 6.83807 3.37237 5.69347 3.37237 4.5C3.37237 3.30653 3.8461 2.16193 4.68936 1.31802C5.53261 0.474106 6.67631 0 7.86885 0C9.06139 0 10.2051 0.474106 11.0483 1.31802C11.8916 2.16193 12.3653 3.30653 12.3653 4.5ZM7.34543 12.6281L6.69204 11.5383C6.46721 11.1621 6.7377 10.6875 7.1733 10.6875H7.86534H8.55738C8.99297 10.6875 9.26347 11.1656 9.03864 11.5383L8.38525 12.6281L8.94379 14.7094L10.4824 11.6297C10.5878 11.4187 10.8126 11.2957 11.041 11.3344C13.7143 11.7984 15.7377 14.1223 15.7377 16.9207C15.7377 17.5184 15.2529 18 14.6593 18H1.07845C0.484778 18 0 17.5148 0 16.9207C0 14.1223 2.02342 11.7984 4.6897 11.3344C4.92155 11.2957 5.14286 11.4187 5.24824 11.6297L6.78689 14.7094L7.34543 12.6281ZM4.16276 13.2293C2.8911 13.7496 1.94614 14.9133 1.73185 16.3125H5.70141L4.16276 13.2293ZM10.0363 16.3125H14.0059C13.7916 14.9133 12.8466 13.7496 11.5749 13.2293L10.0363 16.3125Z" fill="#AA33CF"/>
</g>
<defs>
<clipPath id="clip0_804_5680">
<rect width="15.7377" height="18" fill="white"/>
</clipPath>
</defs>
</svg>
