<svg width="32" height="32" viewBox="0 0 32 32" fill="none" xmlns="http://www.w3.org/2000/svg">
<path d="M13 14V22C13 22.2652 13.1054 22.5196 13.2929 22.7071C13.4804 22.8946 13.7348 23 14 23C14.2652 23 14.5196 22.8946 14.7071 22.7071C14.8946 22.5196 15 22.2652 15 22V14C15 13.7348 14.8946 13.4804 14.7071 13.2929C14.5196 13.1054 14.2652 13 14 13C13.7348 13 13.4804 13.1054 13.2929 13.2929C13.1054 13.4804 13 13.7348 13 14ZM18 13C18.2652 13 18.5196 13.1054 18.7071 13.2929C18.8946 13.4804 19 13.7348 19 14V22C19 22.2652 18.8946 22.5196 18.7071 22.7071C18.5196 22.8946 18.2652 23 18 23C17.7348 23 17.4804 22.8946 17.2929 22.7071C17.1054 22.5196 17 22.2652 17 22V14C17 13.7348 17.1054 13.4804 17.2929 13.2929C17.4804 13.1054 17.7348 13 18 13ZM20 8H26C26.2652 8 26.5196 8.10536 26.7071 8.29289C26.8946 8.48043 27 8.73478 27 9C27 9.26522 26.8946 9.51957 26.7071 9.70711C26.5196 9.89464 26.2652 10 26 10H24.894L23.39 23.552C23.2541 24.7751 22.672 25.9051 21.755 26.7258C20.838 27.5465 19.6506 28.0001 18.42 28H13.58C12.3494 28.0001 11.162 27.5465 10.245 26.7258C9.32799 25.9051 8.74586 24.7751 8.61 23.552L7.104 10H6C5.73478 10 5.48043 9.89464 5.29289 9.70711C5.10536 9.51957 5 9.26522 5 9C5 8.73478 5.10536 8.48043 5.29289 8.29289C5.48043 8.10536 5.73478 8 6 8H12C12 6.93913 12.4214 5.92172 13.1716 5.17157C13.9217 4.42143 14.9391 4 16 4C17.0609 4 18.0783 4.42143 18.8284 5.17157C19.5786 5.92172 20 6.93913 20 8ZM16 6C15.4696 6 14.9609 6.21071 14.5858 6.58579C14.2107 6.96086 14 7.46957 14 8H18C18 7.46957 17.7893 6.96086 17.4142 6.58579C17.0391 6.21071 16.5304 6 16 6ZM9.118 10L10.598 23.332C10.6797 24.0657 11.0291 24.7435 11.5792 25.2358C12.1294 25.728 12.8418 26.0001 13.58 26H18.42C19.1579 25.9996 19.8698 25.7273 20.4195 25.2351C20.9693 24.7429 21.3183 24.0654 21.4 23.332L22.884 10H9.12H9.118Z" fill="#D6B1E2"/>
</svg>
