<svg width="20" height="20" viewBox="0 0 20 20" fill="none" xmlns="http://www.w3.org/2000/svg">
<g clip-path="url(#clip0_804_5684)">
<path d="M14.3906 0.713867C15.2461 -0.141602 16.6289 -0.141602 17.4843 0.713867L19.2851 2.51465C20.1406 3.37012 20.1406 4.75293 19.2851 5.6084L16.5117 8.38184L16.1015 8.78809L14.5156 14.6123C14.3281 15.3076 13.8086 15.8623 13.1289 16.1006L2.81246 19.7256C2.0898 19.9795 1.28512 19.7959 0.746054 19.2568C0.206991 18.7178 0.0194913 17.9092 0.273398 17.1865L3.8984 6.87012C4.13668 6.19043 4.69137 5.6748 5.38668 5.4834L11.2109 3.89746L11.6171 3.49121L14.3906 0.717773V0.713867ZM11.5976 5.7334L5.87887 7.29199C5.78121 7.31934 5.69918 7.39355 5.66793 7.49121L2.44137 16.6748L6.43355 12.6826C6.31637 12.4365 6.24996 12.1631 6.24996 11.874C6.24996 10.8389 7.0898 9.99902 8.12496 9.99902C9.16012 9.99902 9.99996 10.8389 9.99996 11.874C9.99996 12.9092 9.16012 13.749 8.12496 13.749C7.8359 13.749 7.56246 13.6826 7.31637 13.5654L3.32418 17.5576L12.5078 14.3311C12.6054 14.2959 12.6796 14.2178 12.707 14.1201L14.2656 8.40137L11.5976 5.7334Z" fill="#D6B1E2"/>
</g>
<defs>
<clipPath id="clip0_804_5684">
<rect width="20" height="20" fill="white"/>
</clipPath>
</defs>
</svg>
