<svg width="24" height="22" viewBox="0 0 24 22" fill="none" xmlns="http://www.w3.org/2000/svg">
<path d="M0 2.45469C0 1.37656 0.876563 0.5 1.95469 0.5H22.0453C23.1234 0.5 24 1.37656 24 2.45469C24 2.90469 23.8453 3.34063 23.5594 3.6875L15.75 13.2734V19.9859C15.75 20.8203 15.0703 21.5 14.2359 21.5C13.8938 21.5 13.5609 21.3828 13.2938 21.1719L8.95781 17.7313C8.50781 17.375 8.25 16.8359 8.25 16.2641V13.2781L0.440625 3.6875C0.154687 3.34063 0 2.90469 0 2.45469ZM2.57812 2.75L10.2469 12.1625C10.4109 12.3641 10.5 12.6125 10.5 12.875V16.0812L13.5 18.4625V12.875C13.5 12.6172 13.5891 12.3641 13.7531 12.1625L21.4219 2.75H2.57812Z" fill="#AA33CF"/>
</svg>
