<svg width="82" height="82" viewBox="0 0 82 82" fill="none" xmlns="http://www.w3.org/2000/svg">
<g clip-path="url(#clip0_939_2111)">
<path d="M45.3204 22.6868C46.618 22.6868 47.1297 23.6786 47.2556 23.9828C47.3814 24.2869 47.721 25.3502 46.8033 26.268C45.751 27.3204 45.7512 29.0331 46.8034 30.0854L49.1673 32.4493C50.2199 33.5018 51.9326 33.5018 52.9851 32.4493C53.9043 31.5298 54.9672 31.8687 55.2709 31.9944C55.5746 32.1203 56.5658 32.6318 56.5658 33.9325C56.5658 35.421 57.7769 36.6319 59.2654 36.6319H62.608C64.0965 36.6319 65.3074 35.4208 65.3074 33.9325C65.3074 32.6349 66.2993 32.1232 66.6034 31.9973C66.9075 31.8714 67.9708 31.532 68.8883 32.4494C69.3984 32.9592 70.0762 33.2399 70.7972 33.2399C71.5184 33.2399 72.1964 32.959 72.706 32.4493L75.0697 30.0855C75.5797 29.5757 75.8606 28.8978 75.8606 28.1766C75.8606 27.4554 75.5798 26.7776 75.0699 26.2677C74.1524 25.3502 74.4921 24.2869 74.6179 23.9828C74.7438 23.6786 75.2555 22.6868 76.5531 22.6868C78.0416 22.6868 79.2525 21.4757 79.2525 19.9873V16.6447C79.2525 15.1562 78.0414 13.9453 76.5531 13.9453C75.2555 13.9453 74.7438 12.9534 74.6179 12.6493C74.4921 12.3452 74.1524 11.2819 75.0701 10.364C76.1223 9.31148 76.1221 7.59893 75.0699 6.54655L72.7061 4.18296C72.1964 3.67286 71.5184 3.39211 70.7972 3.39211C70.0762 3.39211 69.3984 3.67286 68.8882 4.1828C67.9705 5.10034 66.9077 4.7608 66.6034 4.63492C66.2994 4.50904 65.3074 3.99734 65.3074 2.69959C65.3074 1.2111 64.0965 0 62.608 0H59.2654C57.7767 0 56.5658 1.2111 56.5658 2.69943C56.5658 3.99718 55.5739 4.50888 55.2698 4.63476C54.9656 4.76064 53.9025 5.09986 52.985 4.18264C52.4751 3.6727 51.7973 3.39195 51.0761 3.39195C50.3549 3.39195 49.6771 3.6727 49.1672 4.18264L46.8031 6.54687C45.7514 7.59893 45.7512 9.31148 46.8033 10.3644C47.7208 11.2819 47.3813 12.3452 47.2554 12.6493C47.1295 12.9534 46.6178 13.9453 45.3202 13.9453C43.8317 13.9453 42.6208 15.1564 42.6208 16.6447V19.9873C42.6208 21.4758 43.8319 22.6868 45.3204 22.6868ZM45.8239 17.1258C47.7887 16.9485 49.4436 15.737 50.2148 13.875C50.9861 12.0128 50.6722 9.98574 49.4085 8.47147L51.0921 6.7879C52.6065 8.05169 54.6333 8.36544 56.4955 7.59413C58.3574 6.82298 59.5688 5.16792 59.7463 3.20312H62.1269C62.3042 5.16792 63.5157 6.82298 65.3777 7.59413C67.2395 8.36496 69.2665 8.05169 70.7811 6.7879L72.4646 8.47147C71.2007 9.98606 70.8873 12.013 71.6586 13.875C72.4299 15.737 74.0846 16.9484 76.0494 17.1258V19.5062C74.0846 19.6835 72.4297 20.8951 71.6586 22.7571C70.8874 24.6191 71.2008 26.6458 72.4646 28.1604L70.7811 29.844C69.2665 28.5802 67.2399 28.2666 65.3776 29.0379C63.5157 29.8091 62.3043 31.464 62.1269 33.4288H59.7463C59.5693 31.4622 58.3581 29.8062 56.4966 29.035C54.6344 28.2639 52.6073 28.5786 51.0921 29.844L49.4085 28.1606C50.6727 26.646 50.9861 24.6191 50.2148 22.7571C49.4435 20.8951 47.7887 19.6837 45.8239 19.5062V17.1258ZM60.9366 26.5111C65.4554 26.5111 69.1318 22.8348 69.1318 18.3159C69.1318 13.797 65.4554 10.1206 60.9366 10.1206C56.4178 10.1206 52.7414 13.797 52.7414 18.3159C52.7416 22.8348 56.4179 26.5111 60.9366 26.5111ZM60.9366 13.3237C63.6894 13.3237 65.9287 15.5632 65.9287 18.3159C65.9287 21.0687 63.6894 23.308 60.9366 23.308C58.1838 23.308 55.9445 21.0687 55.9445 18.3159C55.9445 15.5632 58.184 13.3237 60.9366 13.3237ZM79.0767 57.8443C78.0847 57.8443 77.2648 57.2954 76.8841 56.3761C76.5033 55.4567 76.6948 54.4888 77.3965 53.7872C78.4811 52.7026 78.4811 50.9375 77.3965 49.8525L74.8545 47.3106C74.3292 46.7852 73.6302 46.4956 72.887 46.4956C72.1437 46.4956 71.4451 46.785 70.9196 47.3105C70.218 48.0123 69.2497 48.2035 68.3308 47.8227C67.4115 47.442 66.8627 46.6223 66.8627 45.6301C66.8627 44.096 65.6146 42.8479 64.0805 42.8479H60.4857C58.9516 42.8479 57.7035 44.096 57.7035 45.6301C57.7035 46.6223 57.1547 47.442 56.2352 47.8227C55.3161 48.2035 54.3479 48.0121 53.6464 47.3105C52.5615 46.2257 50.7961 46.2257 49.7116 47.3105L47.1697 49.8525C46.6442 50.3779 46.3548 51.0767 46.3548 51.8198C46.3548 52.5633 46.6444 53.262 47.1697 53.7872C47.8714 54.4888 48.0627 55.4567 47.6819 56.3761C47.301 57.2954 46.4814 57.8443 45.4892 57.8443C43.9552 57.8443 42.7071 59.0924 42.7071 60.6265V64.2212C42.7071 65.7553 43.9552 67.0034 45.4892 67.0034C46.4814 67.0034 47.3012 67.5523 47.6819 68.4718C48.0627 69.3911 47.8714 70.3587 47.1697 71.0604C46.085 72.1451 46.085 73.9105 47.1697 74.9952L49.7116 77.5372C50.7961 78.622 52.5615 78.622 53.6464 77.5372C54.3495 76.834 55.3175 76.6412 56.2365 77.022C57.155 77.4026 57.7035 78.2234 57.7035 79.2176C57.7035 80.7517 58.9516 81.9998 60.4857 81.9998H64.0805C65.6146 81.9998 66.8627 80.7517 66.8627 79.2176C66.8627 78.2254 67.4115 77.4058 68.3308 77.0251C69.2498 76.6439 70.2178 76.8354 70.9196 77.5372C71.4451 78.0627 72.1438 78.3521 72.887 78.3521C73.6304 78.3521 74.3292 78.0626 74.8543 77.5372L77.3966 74.9951C78.4811 73.9103 78.4811 72.1453 77.3965 71.0604C76.6948 70.3587 76.5033 69.3911 76.8841 68.4718C77.265 67.5523 78.0845 67.0034 79.0767 67.0034C80.6108 67.0034 81.8589 65.7553 81.8589 64.2212V60.6265C81.8589 59.0924 80.6108 57.8443 79.0767 57.8443ZM78.6558 63.8152C76.54 63.9661 74.7507 65.2517 73.9248 67.2459C73.0987 69.2405 73.4549 71.4148 74.8444 73.0173L72.8764 74.9853C71.2735 73.596 69.0996 73.2398 67.1048 74.0659C65.1107 74.8918 63.8252 76.6812 63.6743 78.7969H60.8916C60.7409 76.6791 59.4558 74.8887 57.462 74.0628C55.468 73.2367 53.2934 73.594 51.6893 74.9853L49.7215 73.0173C51.111 71.4145 51.4672 69.2404 50.6411 67.2459C49.815 65.2517 48.0257 63.9661 45.9099 63.8152V61.0325C48.0257 60.8816 49.815 59.5961 50.6409 57.6018C51.467 55.6075 51.111 53.4334 49.7215 51.8304L51.6893 49.8624C53.292 51.2519 55.4661 51.6079 57.4609 50.7819C59.4551 49.9559 60.7407 48.1667 60.8916 46.0508H63.6743C63.8252 48.1665 65.1107 49.9559 67.1048 50.7819C69.0997 51.6084 71.2735 51.2519 72.8764 49.8624L74.8444 51.8304C73.4549 53.4333 73.0987 55.6075 73.9248 57.6018C74.7509 59.5961 76.5401 60.8816 78.6558 61.0325V63.8152ZM62.283 53.4911C57.3574 53.4911 53.3503 57.4983 53.3503 62.4238C53.3503 67.3492 57.3576 71.3565 62.283 71.3565C67.2085 71.3565 71.2156 67.3492 71.2156 62.4238C71.2156 57.4983 67.2085 53.4911 62.283 53.4911ZM62.283 68.1535C59.1236 68.1535 56.5534 65.5832 56.5534 62.4239C56.5534 59.2647 59.1238 56.6944 62.283 56.6944C65.4423 56.6944 68.0124 59.2647 68.0124 62.4239C68.0124 65.5832 65.4421 68.1535 62.283 68.1535ZM40.0013 48.2745C40.4986 47.0739 41.5692 46.3571 42.8652 46.3571C44.5183 46.3571 45.8633 45.0122 45.8633 43.3591V39.1073C45.8633 37.4543 44.5185 36.1093 42.8652 36.1093C41.5692 36.1093 40.4987 35.3924 40.0013 34.1919C39.5042 32.9914 39.7542 31.7274 40.6706 30.8113C41.2369 30.2452 41.5487 29.4921 41.5487 28.6912C41.5487 27.8903 41.2369 27.1372 40.6707 26.5712L37.6643 23.5648C36.4953 22.3958 34.5934 22.3959 33.4241 23.5648C32.5077 24.4813 31.2441 24.7313 30.0434 24.2342C28.8429 23.7369 28.126 22.6663 28.126 21.3703C28.126 19.7172 26.7812 18.3722 25.1281 18.3722H20.8762C19.2232 18.3722 17.8783 19.717 17.8783 21.3703C17.8783 22.6663 17.1614 23.7368 15.9609 24.2342C14.7608 24.7312 13.4964 24.4815 12.5801 23.5648C11.4111 22.3958 9.50929 22.3959 8.33999 23.5648L5.3337 26.571C4.76739 27.1372 4.45556 27.8903 4.45556 28.6912C4.45556 29.4921 4.76739 30.2452 5.33354 30.8112C6.25011 31.7276 6.50012 32.9914 6.00299 34.1919C5.50571 35.3924 4.43506 36.1093 3.13908 36.1093C1.48611 36.1093 0.141113 37.4541 0.141113 39.1073V43.3591C0.141113 45.0121 1.48595 46.3571 3.13908 46.3571C4.43506 46.3571 5.50555 47.0739 6.00299 48.2745C6.50012 49.475 6.25011 50.7389 5.33354 51.6552C4.76739 52.2215 4.45556 52.9744 4.45556 53.7752C4.45556 54.576 4.76739 55.3289 5.33354 55.8952L8.33999 58.9016C8.9063 59.4678 9.6592 59.7796 10.46 59.7796C11.2611 59.7796 12.014 59.4678 12.58 58.9016C13.4981 57.9834 14.7629 57.732 15.9621 58.229C17.1619 58.7259 17.8781 59.7977 17.8781 61.0961C17.8781 62.7492 19.2229 64.0942 20.8761 64.0942H25.1279C26.7809 64.0942 28.1259 62.7494 28.1259 61.0961C28.1259 59.8001 28.8427 58.7296 30.0432 58.2322C31.2433 57.7352 32.5077 57.9849 33.424 58.9016C33.9903 59.4678 34.7432 59.7796 35.544 59.7796C36.3451 59.7796 37.098 59.4678 37.664 58.9016L40.6704 55.8952C41.2366 55.3289 41.5484 54.576 41.5484 53.7752C41.5484 52.9744 41.2366 52.2215 40.6704 51.6552C39.7542 50.7389 39.504 49.475 40.0013 48.2745ZM37.0419 47.0486C36.0731 49.3875 36.5429 51.9451 38.2628 53.7731L35.5419 56.494C33.7139 54.7744 31.1567 54.3042 28.8174 55.2731C26.4785 56.2419 25.0023 58.3824 24.9259 60.8912H21.0782C21.0019 58.3798 19.5263 56.2382 17.1881 55.2698C14.8502 54.3008 12.2922 54.7723 10.4622 56.494L7.74133 53.7731C9.46125 51.9451 9.93098 49.3874 8.9622 47.0486C7.99341 44.7099 5.85309 43.2335 3.34424 43.1571V39.3096C5.85309 39.2332 7.99341 37.7568 8.9622 35.4179C9.93098 33.079 9.46125 30.5216 7.74133 28.6936L10.4622 25.9727C12.2902 27.6925 14.8475 28.1625 17.1867 27.1936C19.5256 26.2248 21.0018 24.0843 21.0782 21.5754H24.9258C25.0022 24.0843 26.4783 26.2248 28.8173 27.1936C31.1565 28.1622 33.7137 27.6926 35.5417 25.9727L38.2626 28.6936C36.5427 30.5215 36.073 33.0792 37.0418 35.4179C38.0105 37.7567 40.151 39.2332 42.6599 39.3096V43.1571C40.1512 43.2334 38.0107 44.7097 37.0419 47.0486ZM23.0021 29.8586C16.7301 29.8586 11.6274 34.9613 11.6274 41.2333C11.6274 47.5054 16.7301 52.608 23.0021 52.608C29.2742 52.608 34.3768 47.5054 34.3768 41.2333C34.3768 34.9613 29.2742 29.8586 23.0021 29.8586ZM23.0021 49.4048C18.4961 49.4048 14.8305 45.739 14.8305 41.2333C14.8305 36.7274 18.4963 33.0617 23.0021 33.0617C27.508 33.0617 31.1736 36.7275 31.1736 41.2333C31.1738 45.7392 27.508 49.4048 23.0021 49.4048Z" fill="#D6B1E2"/>
</g>
<defs>
<clipPath id="clip0_939_2111">
<rect width="82" height="82" fill="white"/>
</clipPath>
</defs>
</svg>
