<svg width="18" height="24" viewBox="0 0 18 24" fill="currentColor" xmlns="http://www.w3.org/2000/svg">
<path d="M15 22.5H3C2.17031 22.5 1.5 21.8297 1.5 21V3C1.5 2.17031 2.17031 1.5 3 1.5H9V6.75C9 7.99219 10.0078 9 11.25 9H16.5V21C16.5 21.8297 15.8297 22.5 15 22.5ZM11.25 7.5C10.8375 7.5 10.5 7.1625 10.5 6.75V1.52344C10.6313 1.55625 10.7531 1.62188 10.8469 1.72031L16.2797 7.15313C16.3781 7.25156 16.4438 7.36875 16.4766 7.5H11.25ZM3 0C1.34531 0 0 1.34531 0 3V21C0 22.6547 1.34531 24 3 24H15C16.6547 24 18 22.6547 18 21V7.68281C18 7.0875 17.7609 6.51562 17.3391 6.09375L11.9109 0.660938C11.4891 0.239063 10.9172 0 10.3219 0H3ZM5.25 12C4.8375 12 4.5 12.3375 4.5 12.75C4.5 13.1625 4.8375 13.5 5.25 13.5H12.75C13.1625 13.5 13.5 13.1625 13.5 12.75C13.5 12.3375 13.1625 12 12.75 12H5.25ZM5.25 15C4.8375 15 4.5 15.3375 4.5 15.75C4.5 16.1625 4.8375 16.5 5.25 16.5H12.75C13.1625 16.5 13.5 16.1625 13.5 15.75C13.5 15.3375 13.1625 15 12.75 15H5.25ZM5.25 18C4.8375 18 4.5 18.3375 4.5 18.75C4.5 19.1625 4.8375 19.5 5.25 19.5H12.75C13.1625 19.5 13.5 19.1625 13.5 18.75C13.5 18.3375 13.1625 18 12.75 18H5.25Z" fill="currentColor"/>
</svg>
