<svg width="20" height="20" viewBox="0 0 20 20" fill="none" xmlns="http://www.w3.org/2000/svg">
<path d="M13.75 5.71094L18.0469 10L13.75 14.2891V12.1875C13.75 11.668 13.332 11.25 12.8125 11.25H8.125V8.75H12.8125C13.332 8.75 13.75 8.33203 13.75 7.8125V5.71094ZM20 10C20 9.55078 19.8203 9.12109 19.5039 8.80469L14.9688 4.28125C14.6289 3.94141 14.168 3.75 13.6875 3.75C12.6875 3.75 11.875 4.5625 11.875 5.5625V6.875H8.125C7.08984 6.875 6.25 7.71484 6.25 8.75V11.25C6.25 12.2852 7.08984 13.125 8.125 13.125H11.875V14.4375C11.875 15.4375 12.6875 16.25 13.6875 16.25C14.168 16.25 14.6289 16.0586 14.9688 15.7188L19.5039 11.1953C19.8203 10.8789 20 10.4492 20 10ZM6.5625 3.125C7.08203 3.125 7.5 2.70703 7.5 2.1875C7.5 1.66797 7.08203 1.25 6.5625 1.25H3.4375C1.53906 1.25 0 2.78906 0 4.6875V15.3125C0 17.2109 1.53906 18.75 3.4375 18.75H6.5625C7.08203 18.75 7.5 18.332 7.5 17.8125C7.5 17.293 7.08203 16.875 6.5625 16.875H3.4375C2.57422 16.875 1.875 16.1758 1.875 15.3125V4.6875C1.875 3.82422 2.57422 3.125 3.4375 3.125H6.5625Z" fill="black"/>
</svg>
