<svg width="21" height="20" viewBox="0 0 21 20" fill="none" xmlns="http://www.w3.org/2000/svg">
<g clip-path="url(#clip0_894_2254)">
<path d="M3 4.375C2.65625 4.375 2.375 4.65625 2.375 5V5.86328L9.11328 11.3945C9.92188 12.0586 11.082 12.0586 11.8906 11.3945L18.625 5.86328V5C18.625 4.65625 18.3438 4.375 18 4.375H3ZM2.375 8.28906V15C2.375 15.3438 2.65625 15.625 3 15.625H18C18.3438 15.625 18.625 15.3438 18.625 15V8.28906L13.0781 12.8438C11.5781 14.0742 9.41797 14.0742 7.92188 12.8438L2.375 8.28906ZM0.5 5C0.5 3.62109 1.62109 2.5 3 2.5H18C19.3789 2.5 20.5 3.62109 20.5 5V15C20.5 16.3789 19.3789 17.5 18 17.5H3C1.62109 17.5 0.5 16.3789 0.5 15V5Z" fill="#B946DE"/>
</g>
<defs>
<clipPath id="clip0_894_2254">
<rect width="20" height="20" fill="white" transform="translate(0.5)"/>
</clipPath>
</defs>
</svg>
