<svg width="21" height="18" viewBox="0 0 21 18" fill="none" xmlns="http://www.w3.org/2000/svg">
<g clip-path="url(#clip0_894_2268)">
<path d="M0.5 2.33355C0.5 1.10786 1.49653 0.111328 2.72222 0.111328H8.27778V4.55577C8.27778 5.17036 8.77431 5.66688 9.38889 5.66688H13.8333V7.29883L10.6111 8.58702C9.87153 8.88216 9.38889 9.59744 9.38889 10.3926C9.38889 12.3579 10.0451 15.5315 12.6597 17.6252C12.3472 17.7919 11.9896 17.8891 11.6111 17.8891H2.72222C1.49653 17.8891 0.5 16.8926 0.5 15.6669V2.33355ZM13.8333 4.55577H9.38889V0.111328L13.8333 4.55577ZM15.191 7.94813C15.3889 7.86827 15.6111 7.86827 15.809 7.94813L19.9757 9.6148C20.2917 9.74327 20.5 10.0488 20.5 10.3891C20.5 12.587 19.6007 16.2502 15.8194 17.8266C15.6146 17.9134 15.3819 17.9134 15.1771 17.8266C11.3993 16.2502 10.5 12.587 10.5 10.3891C10.5 10.0488 10.7083 9.74327 11.0243 9.6148L15.191 7.94813ZM18.8125 10.9447L15.5 9.61827V16.1391C17.8681 14.9933 18.6771 12.7016 18.8125 10.9412V10.9447Z" fill="#B946DE"/>
</g>
<defs>
<clipPath id="clip0_894_2268">
<rect width="20" height="17.7778" fill="white" transform="translate(0.5 0.111328)"/>
</clipPath>
</defs>
</svg>
