<svg width="21" height="21" viewBox="0 0 21 21" fill="none" xmlns="http://www.w3.org/2000/svg">
<g clip-path="url(#clip0_4563_126)">
<path d="M11.6538 1.65385C11.6538 1.01442 11.1394 0.5 10.5 0.5C9.86058 0.5 9.34615 1.01442 9.34615 1.65385V9.34615H1.65385C1.01442 9.34615 0.5 9.86058 0.5 10.5C0.5 11.1394 1.01442 11.6538 1.65385 11.6538H9.34615V19.3462C9.34615 19.9856 9.86058 20.5 10.5 20.5C11.1394 20.5 11.6538 19.9856 11.6538 19.3462V11.6538H19.3462C19.9856 11.6538 20.5 11.1394 20.5 10.5C20.5 9.86058 19.9856 9.34615 19.3462 9.34615H11.6538V1.65385Z" fill="#D6B1E2"/>
</g>
<defs>
<clipPath id="clip0_4563_126">
<rect width="20" height="20" fill="white" transform="translate(0.5 0.5)"/>
</clipPath>
</defs>
</svg>
