<svg width="21" height="21" viewBox="0 0 21 21" fill="none" xmlns="http://www.w3.org/2000/svg">
<g clip-path="url(#clip0_4563_265)">
<path d="M20.7433 19.0768L15.5204 14.1027C16.9437 12.4448 17.6435 10.3294 17.4751 8.19396C17.3066 6.05852 16.2827 4.06644 14.6153 2.62976C12.9479 1.19309 10.7645 0.42174 8.51662 0.475267C6.26879 0.528793 4.12855 1.4031 2.5386 2.91734C0.948645 4.43158 0.0306235 6.46991 -0.0255793 8.6107C-0.0817821 10.7515 0.728134 12.831 2.23664 14.419C3.74515 16.007 5.83684 16.9821 8.07905 17.1425C10.3213 17.303 12.5425 16.6365 14.2832 15.281L19.5061 20.2552C19.6711 20.407 19.8921 20.491 20.1215 20.4891C20.351 20.4872 20.5704 20.3995 20.7327 20.245C20.8949 20.0905 20.9869 19.8815 20.9889 19.663C20.9909 19.4445 20.9027 19.234 20.7433 19.0768ZM8.74969 15.4993C7.36522 15.4993 6.01184 15.1083 4.86069 14.3758C3.70955 13.6433 2.81234 12.6021 2.28253 11.3839C1.75272 10.1657 1.61409 8.82527 1.88419 7.53206C2.15429 6.23885 2.82097 5.05097 3.79994 4.11862C4.77891 3.18627 6.02619 2.55133 7.38405 2.29409C8.74192 2.03686 10.1494 2.16888 11.4285 2.67347C12.7076 3.17805 13.8008 4.03253 14.57 5.12886C15.3391 6.22519 15.7497 7.51412 15.7497 8.83266C15.7476 10.6002 15.0094 12.2947 13.6971 13.5445C12.3848 14.7943 10.6056 15.4973 8.74969 15.4993Z" fill="#D6B1E2"/>
</g>
<defs>
<clipPath id="clip0_4563_265">
<rect width="21" height="20" fill="white" transform="translate(0 0.5)"/>
</clipPath>
</defs>
</svg>
