<svg width="21" height="24" viewBox="0 0 21 24" fill="none" xmlns="http://www.w3.org/2000/svg">
<g clip-path="url(#clip0_511_15140)">
<path d="M10.4918 9.75C11.4856 9.75 12.4387 9.35491 13.1414 8.65165C13.8441 7.94839 14.2389 6.99456 14.2389 6C14.2389 5.00544 13.8441 4.05161 13.1414 3.34835C12.4387 2.64509 11.4856 2.25 10.4918 2.25C9.49802 2.25 8.54494 2.64509 7.84222 3.34835C7.13951 4.05161 6.74473 5.00544 6.74473 6C6.74473 6.99456 7.13951 7.94839 7.84222 8.65165C8.54494 9.35491 9.49802 9.75 10.4918 9.75ZM16.4871 6C16.4871 7.5913 15.8555 9.11742 14.7311 10.2426C13.6068 11.3679 12.0819 12 10.4918 12C8.90175 12 7.37681 11.3679 6.25247 10.2426C5.12813 9.11742 4.49649 7.5913 4.49649 6C4.49649 4.4087 5.12813 2.88258 6.25247 1.75736C7.37681 0.632141 8.90175 0 10.4918 0C12.0819 0 13.6068 0.632141 14.7311 1.75736C15.8555 2.88258 16.4871 4.4087 16.4871 6ZM9.79391 16.8375L8.92272 15.3844C8.62295 14.8828 8.98361 14.25 9.5644 14.25H10.4871H11.4098C11.9906 14.25 12.3513 14.8875 12.0515 15.3844L11.1803 16.8375L11.9251 19.6125L13.9766 15.5062C14.1171 15.225 14.4169 15.0609 14.7213 15.1125C18.2857 15.7312 20.9836 18.8297 20.9836 22.5609C20.9836 23.3578 20.3372 24 19.5457 24H1.43794C0.64637 24 0 23.3531 0 22.5609C0 18.8297 2.69789 15.7312 6.25293 15.1125C6.56206 15.0609 6.85714 15.225 6.99766 15.5062L9.04918 19.6125L9.79391 16.8375ZM5.55035 17.6391C3.8548 18.3328 2.59485 19.8844 2.30913 21.75H7.60187L5.55035 17.6391ZM13.3817 21.75H18.6745C18.3888 19.8844 17.1288 18.3328 15.4333 17.6391L13.3817 21.75Z" fill="black"/>
</g>
<defs>
<clipPath id="clip0_511_15140">
<rect width="20.9836" height="24" fill="white"/>
</clipPath>
</defs>
</svg>
