<svg width="20" height="21" viewBox="0 0 20 21" fill="none" xmlns="http://www.w3.org/2000/svg">
<g clip-path="url(#clip0_920_10821)">
<path d="M6.66667 10.5006C6.66667 12.3389 8.16167 13.8339 10 13.8339C11.8383 13.8339 13.3333 12.3389 13.3333 10.5006C13.3333 8.66226 11.8383 7.16726 10 7.16726C8.16167 7.16726 6.66667 8.66226 6.66667 10.5006ZM11.6667 10.5006C11.6667 11.4198 10.9192 12.1673 10 12.1673C9.08083 12.1673 8.33333 11.4198 8.33333 10.5006C8.33333 9.58143 9.08083 8.83393 10 8.83393C10.9192 8.83393 11.6667 9.58143 11.6667 10.5006ZM4.58333 7.16726C5.27333 7.16726 5.83333 7.72726 5.83333 8.41726C5.83333 9.10726 5.27333 9.66726 4.58333 9.66726C3.89333 9.66726 3.33333 9.10726 3.33333 8.41726C3.33333 7.72726 3.89333 7.16726 4.58333 7.16726ZM16.6667 12.5839C16.6667 13.2739 16.1067 13.8339 15.4167 13.8339C14.7267 13.8339 14.1667 13.2739 14.1667 12.5839C14.1667 11.8939 14.7267 11.3339 15.4167 11.3339C16.1067 11.3339 16.6667 11.8939 16.6667 12.5839ZM-5.17932e-07 11.3339V8.0006C-5.17932e-07 5.7031 1.86917 3.83393 4.16667 3.83393H17.5092L16.4767 2.73893C16.1617 2.40393 16.1767 1.87643 16.5117 1.56059C16.8458 1.24559 17.3733 1.26059 17.69 1.59559L19.56 3.57976C20.1517 4.17059 20.1517 5.16226 19.5425 5.77143L17.69 7.7381C17.5258 7.91226 17.305 7.99976 17.0833 7.99976C16.8783 7.99976 16.6725 7.92476 16.5117 7.7731C16.1767 7.45726 16.1608 6.92976 16.4767 6.59476L17.5083 5.49976H4.16667C2.78833 5.49976 1.66667 6.62143 1.66667 7.99976V11.3331C1.66667 11.7931 1.29333 12.1664 0.833333 12.1664C0.373333 12.1664 -5.17932e-07 11.7931 -5.17932e-07 11.3331V11.3339ZM20 10.0839V13.0006C20 15.2981 18.1308 17.1673 15.8333 17.1673H2.49083L3.52333 18.2623C3.83833 18.5973 3.82333 19.1248 3.48833 19.4406C3.3275 19.5923 3.1225 19.6673 2.91667 19.6673C2.695 19.6673 2.47417 19.5798 2.31 19.4056L0.439999 17.4214C-0.151667 16.8306 -0.151667 15.8389 0.457499 15.2298L2.31 13.2631C2.62583 12.9273 3.15333 12.9131 3.48833 13.2281C3.82333 13.5439 3.83917 14.0714 3.52333 14.4064L2.49167 15.5014H15.8333C17.2117 15.5014 18.3333 14.3798 18.3333 13.0014V10.0848C18.3333 9.62476 18.7067 9.25143 19.1667 9.25143C19.6267 9.25143 20 9.62476 20 10.0848V10.0839Z" fill="#B946DE"/>
</g>
<defs>
<clipPath id="clip0_920_10821">
<rect width="20" height="20" fill="white" transform="translate(0 0.5)"/>
</clipPath>
</defs>
</svg>
